<svg id="Layer_1" data-name="Layer 1" xmlns="http://www.w3.org/2000/svg" viewBox="0 0 64 62.65"><defs><style>.cls-1{fill:#bdfe07;}</style></defs><path class="cls-1" d="M61.66,38,40.85,60.49a8.79,8.79,0,0,1-6.47,2.83H8.82A8.82,8.82,0,0,1,0,54.5H0a8.82,8.82,0,0,1,8.82-8.82H26.9a8.81,8.81,0,0,0,6.48-2.83L37.87,38a8.82,8.82,0,0,0,0-12l-4.49-4.87a8.81,8.81,0,0,0-6.48-2.83H8.82A8.82,8.82,0,0,1,0,9.5H0A8.82,8.82,0,0,1,8.82.68H34.38a8.79,8.79,0,0,1,6.47,2.83L61.66,26A8.82,8.82,0,0,1,61.66,38Z" transform="translate(0 -0.68)"/><path class="cls-1" d="M0,63.32" transform="translate(0 -0.68)"/><path class="cls-1" d="M14.27,32.85l-6,6A1.21,1.21,0,0,1,6.21,38V26a1.21,1.21,0,0,1,2.07-.86l6,6A1.2,1.2,0,0,1,14.27,32.85Z" transform="translate(0 -0.68)"/></svg>